{"title":"Axe.To.Grind.2015.DVDRip.XviD.AC3-FANTA","uid":12194788,"size":1348977244,"categoryP":"video","categoryS":"movies","magnet":"?xt=urn:btih:fdc179e47f74fbf0ffaaf625339edc2bd311e2e2&amp;dn=Axe.To.Grind.2015.DVDRip.XviD.AC3-FANTA&amp;tr=udp%3A%2F%2Ftracker.openbittorrent.com%3A80&amp;tr=udp%3A%2F%2Fopen.demonii.com%3A1337&amp;tr=udp%3A%2F%2Ftracker.coppersurfer.tk%3A6969&amp;tr=udp%3A%2F%2Fexodus.desync.com%3A6969","seeders":11,"leechers":1,"uploader":"xxxlavalxxx","files":2,"time":1438719828,"description":" &lt;a href=&quot;http://extraimago.com/image/SnC&quot; rel=&quot;nofollow&quot; target=&quot;_NEW&quot;&gt;http://extraimago.com/image/SnC&lt;/a&gt;\n &lt;a href=&quot;\nhttp://www.imdb.com/title/tt1634275/&quot; rel=&quot;nofollow&quot; target=&quot;_NEW&quot;&gt;\nhttp://www.imdb.com/title/tt1634275/&lt;/a&gt;\n\n\nB-movie legend, actress Debbie Wilkins, has just been replaced by a 23 yr old scream queen in her lovers bed. More importantly she's been left out of her lovers new film. Debbie doesn't take rejection well.\n\nDirector: Matt Zettell\nWriters: J.P. Linde (additional material), Scott C. Sanford\nStars: Debbie Rochon, Guy Torry, Matthew James Gulbranson \nGenres: Horror | Thriller\nCountry: USA\nLanguage: English\n\n\nFormat                                   : AVI\nFormat/Info                              : Audio Video Interleave\nFormat profile                           : OpenDML\nFormat settings                          : rec\nFile size                                : 1.26 GiB\nDuration                                 : 1h 21mn\nOverall bit rate                         : 2 216 Kbps\nWriting application                      : AVI-Mux GUI 1.17.8.3, Feb 16 201019:42:50\n\nVideo\nID                                       : 0\nFormat                                   : MPEG-4 Visual\nFormat profile                           : Advanced Simple@L5\nFormat settings, BVOP                    : 2\nFormat settings, QPel                    : No\nFormat settings, GMC                     : No warppoints\nFormat settings, Matrix                  : Default (MPEG)\nCodec ID                                 : XVID\nCodec ID/Hint                            : XviD\nDuration                                 : 1h 21mn\nBit rate                                 : 2 018 Kbps\nWidth                                    : 720 pixels\nHeight                                   : 400 pixels\nDisplay aspect ratio                     : 16:9\nFrame rate                               : 23.976 fps\nColor space                              : YUV\nChroma subsampling                       : 4:2:0\nBit depth                                : 8 bits\nScan type                                : Progressive\nCompression mode                         : Lossy\nBits/(Pixel*Frame)                       : 0.292\nStream size                              : 1.14 GiB (91%)\nWriting library                          : XviD 1.2.1 (UTC 2008-12-04)\n\nAudio\nID                                       : 1\nFormat                                   : AC-3\nFormat/Info                              : Audio Coding 3\nMode extension                           : CM (complete main)\nFormat settings, Endianness              : Big\nCodec ID                                 : 2000\nDuration                                 : 1h 21mn\nBit rate mode                            : Constant\nBit rate                                 : 192 Kbps\nChannel(s)                               : 2 channels\nChannel positions                        : Front: L R\nSampling rate                            : 48.0 KHz\nBit depth                                : 16 bits\nCompression mode                         : Lossy\nStream size                              : 111 MiB (9%)\nAlignment                                : Aligned on interleaves\nInterleave, duration                     : 64 ms (1.53 video frames)\nInterleave, preload duration             : 192 ms\nTitle                                    : Axe To Grind 2015\n\n &lt;a href=&quot;\nhttp://extraimago.com/image/SnY&quot; rel=&quot;nofollow&quot; target=&quot;_NEW&quot;&gt;\nhttp://extraimago.com/image/SnY&lt;/a&gt; &lt;a href=&quot;\nhttp://extraimago.com/image/Snp&quot; rel=&quot;nofollow&quot; target=&quot;_NEW&quot;&gt;\nhttp://extraimago.com/image/Snp&lt;/a&gt; &lt;a href=&quot;\nhttp://extraimago.com/image/Snr&quot; rel=&quot;nofollow&quot; target=&quot;_NEW&quot;&gt;\nhttp://extraimago.com/image/Snr&lt;/a&gt; &lt;a href=&quot;\nhttp://extraimago.com/image/SnG&quot; rel=&quot;nofollow&quot; target=&quot;_NEW&quot;&gt;\nhttp://extraimago.com/image/SnG&lt;/a&gt; &lt;a href=&quot;\nhttp://extraimago.com/image/SnP&quot; rel=&quot;nofollow&quot; target=&quot;_NEW&quot;&gt;\nhttp://extraimago.com/image/SnP&lt;/a&gt; &lt;a href=&quot;\nhttp://extraimago.com/image/SnX&quot; rel=&quot;nofollow&quot; target=&quot;_NEW&quot;&gt;\nhttp://extraimago.com/image/SnX&lt;/a&gt; &lt;a href=&quot;\nhttp://extraimago.com/image/Sng&quot; rel=&quot;nofollow&quot; target=&quot;_NEW&quot;&gt;\nhttp://extraimago.com/image/Sng&lt;/a&gt; &lt;a href=&quot;\nhttp://extraimago.com/image/Sn5&quot; rel=&quot;nofollow&quot; target=&quot;_NEW&quot;&gt;\nhttp://extraimago.com/image/Sn5&lt;/a&gt;","torrent":{"xt":"urn:btih:fdc179e47f74fbf0ffaaf625339edc2bd311e2e2","amp;dn":"Axe.To.Grind.2015.DVDRip.XviD.AC3-FANTA","amp;tr":["udp%3A%2F%2Ftracker.openbittorrent.com%3A80","udp%3A%2F%2Fopen.demonii.com%3A1337","udp%3A%2F%2Ftracker.coppersurfer.tk%3A6969","udp%3A%2F%2Fexodus.desync.com%3A6969"],"infoHash":"fdc179e47f74fbf0ffaaf625339edc2bd311e2e2","infoHashBuffer":{"type":"Buffer","data":[253,193,121,228,127,116,251,240,255,170,246,37,51,158,220,43,211,17,226,226]},"announce":[],"urlList":[]}}